<mxfile host="app.diagrams.net" modified="2022-10-18T09:18:55.598Z" agent="5.0 (Windows NT 10.0; Win64; x64) AppleWebKit/537.36 (KHTML, like Gecko) Chrome/106.0.0.0 Safari/537.36" etag="IJCZx-TKdDW3Fq8MR1JN" version="20.4.1" type="github">
  <diagram id="pRept0_NkIIiJ6CWyEB7" name="第 1 页">
    <mxGraphModel dx="1422" dy="730" grid="1" gridSize="10" guides="1" tooltips="1" connect="1" arrows="1" fold="1" page="1" pageScale="1" pageWidth="827" pageHeight="1169" math="0" shadow="0">
      <root>
        <mxCell id="0" />
        <mxCell id="1" parent="0" />
        <mxCell id="-djtuZj3p9Uy3ZZ57MP4-4" style="edgeStyle=orthogonalEdgeStyle;rounded=0;orthogonalLoop=1;jettySize=auto;html=1;entryX=0.5;entryY=0;entryDx=0;entryDy=0;" edge="1" parent="1" source="-djtuZj3p9Uy3ZZ57MP4-2" target="-djtuZj3p9Uy3ZZ57MP4-3">
          <mxGeometry relative="1" as="geometry" />
        </mxCell>
        <mxCell id="-djtuZj3p9Uy3ZZ57MP4-2" value="kafka读流" style="rounded=0;whiteSpace=wrap;html=1;fillColor=#dae8fc;strokeColor=#6c8ebf;" vertex="1" parent="1">
          <mxGeometry x="380" y="100" width="120" height="60" as="geometry" />
        </mxCell>
        <mxCell id="-djtuZj3p9Uy3ZZ57MP4-8" style="edgeStyle=orthogonalEdgeStyle;rounded=0;orthogonalLoop=1;jettySize=auto;html=1;entryX=0.5;entryY=0;entryDx=0;entryDy=0;" edge="1" parent="1" source="-djtuZj3p9Uy3ZZ57MP4-3">
          <mxGeometry relative="1" as="geometry">
            <mxPoint x="440" y="340" as="targetPoint" />
          </mxGeometry>
        </mxCell>
        <mxCell id="-djtuZj3p9Uy3ZZ57MP4-3" value="protobuf解析" style="rounded=0;whiteSpace=wrap;html=1;fillColor=#dae8fc;strokeColor=#6c8ebf;" vertex="1" parent="1">
          <mxGeometry x="380" y="220" width="120" height="60" as="geometry" />
        </mxCell>
        <mxCell id="-djtuZj3p9Uy3ZZ57MP4-6" value="对象存储" style="rounded=0;whiteSpace=wrap;html=1;fillColor=#d5e8d4;strokeColor=#82b366;" vertex="1" parent="1">
          <mxGeometry x="600" y="350" width="120" height="60" as="geometry" />
        </mxCell>
        <mxCell id="-djtuZj3p9Uy3ZZ57MP4-11" style="edgeStyle=orthogonalEdgeStyle;rounded=0;orthogonalLoop=1;jettySize=auto;html=1;entryX=0.5;entryY=0;entryDx=0;entryDy=0;" edge="1" parent="1" target="-djtuZj3p9Uy3ZZ57MP4-10">
          <mxGeometry relative="1" as="geometry">
            <mxPoint x="440" y="420" as="sourcePoint" />
          </mxGeometry>
        </mxCell>
        <mxCell id="-djtuZj3p9Uy3ZZ57MP4-13" style="edgeStyle=orthogonalEdgeStyle;rounded=0;orthogonalLoop=1;jettySize=auto;html=1;entryX=0.5;entryY=0;entryDx=0;entryDy=0;" edge="1" parent="1" source="-djtuZj3p9Uy3ZZ57MP4-10">
          <mxGeometry relative="1" as="geometry">
            <mxPoint x="440" y="610" as="targetPoint" />
          </mxGeometry>
        </mxCell>
        <mxCell id="-djtuZj3p9Uy3ZZ57MP4-10" value="调用安全帽算法" style="rounded=0;whiteSpace=wrap;html=1;fillColor=#e1d5e7;strokeColor=#9673a6;" vertex="1" parent="1">
          <mxGeometry x="380" y="495" width="120" height="60" as="geometry" />
        </mxCell>
        <mxCell id="-djtuZj3p9Uy3ZZ57MP4-16" style="edgeStyle=orthogonalEdgeStyle;rounded=0;orthogonalLoop=1;jettySize=auto;html=1;" edge="1" parent="1" source="-djtuZj3p9Uy3ZZ57MP4-14" target="-djtuZj3p9Uy3ZZ57MP4-15">
          <mxGeometry relative="1" as="geometry" />
        </mxCell>
        <mxCell id="-djtuZj3p9Uy3ZZ57MP4-17" style="edgeStyle=orthogonalEdgeStyle;rounded=0;orthogonalLoop=1;jettySize=auto;html=1;entryX=0;entryY=0.5;entryDx=0;entryDy=0;" edge="1" parent="1" source="-djtuZj3p9Uy3ZZ57MP4-14" target="-djtuZj3p9Uy3ZZ57MP4-6">
          <mxGeometry relative="1" as="geometry" />
        </mxCell>
        <mxCell id="-djtuZj3p9Uy3ZZ57MP4-14" value="image 数据/ 结构化数据" style="ellipse;whiteSpace=wrap;html=1;fillColor=#dae8fc;strokeColor=#6c8ebf;" vertex="1" parent="1">
          <mxGeometry x="380" y="340" width="120" height="80" as="geometry" />
        </mxCell>
        <mxCell id="-djtuZj3p9Uy3ZZ57MP4-15" value="mysql" style="rounded=0;whiteSpace=wrap;html=1;fillColor=#d5e8d4;strokeColor=#82b366;" vertex="1" parent="1">
          <mxGeometry x="170" y="350" width="120" height="60" as="geometry" />
        </mxCell>
        <mxCell id="-djtuZj3p9Uy3ZZ57MP4-21" style="edgeStyle=orthogonalEdgeStyle;rounded=0;orthogonalLoop=1;jettySize=auto;html=1;entryX=1;entryY=0.5;entryDx=0;entryDy=0;" edge="1" parent="1" source="-djtuZj3p9Uy3ZZ57MP4-18" target="-djtuZj3p9Uy3ZZ57MP4-19">
          <mxGeometry relative="1" as="geometry" />
        </mxCell>
        <mxCell id="-djtuZj3p9Uy3ZZ57MP4-23" style="edgeStyle=orthogonalEdgeStyle;rounded=0;orthogonalLoop=1;jettySize=auto;html=1;entryX=0;entryY=0.5;entryDx=0;entryDy=0;" edge="1" parent="1" source="-djtuZj3p9Uy3ZZ57MP4-18" target="-djtuZj3p9Uy3ZZ57MP4-22">
          <mxGeometry relative="1" as="geometry" />
        </mxCell>
        <mxCell id="-djtuZj3p9Uy3ZZ57MP4-18" value="image数据/&lt;br&gt;结构化数据" style="ellipse;whiteSpace=wrap;html=1;fillColor=#dae8fc;strokeColor=#6c8ebf;" vertex="1" parent="1">
          <mxGeometry x="380" y="610" width="120" height="80" as="geometry" />
        </mxCell>
        <mxCell id="-djtuZj3p9Uy3ZZ57MP4-19" value="mysql" style="rounded=0;whiteSpace=wrap;html=1;fillColor=#d5e8d4;strokeColor=#82b366;" vertex="1" parent="1">
          <mxGeometry x="170" y="620" width="120" height="60" as="geometry" />
        </mxCell>
        <mxCell id="-djtuZj3p9Uy3ZZ57MP4-22" value="对象存储" style="rounded=0;whiteSpace=wrap;html=1;fillColor=#d5e8d4;strokeColor=#82b366;" vertex="1" parent="1">
          <mxGeometry x="610" y="620" width="120" height="60" as="geometry" />
        </mxCell>
        <mxCell id="-djtuZj3p9Uy3ZZ57MP4-24" value="开/关" style="text;html=1;strokeColor=none;fillColor=none;align=center;verticalAlign=middle;whiteSpace=wrap;rounded=0;" vertex="1" parent="1">
          <mxGeometry x="520" y="340" width="60" height="30" as="geometry" />
        </mxCell>
        <mxCell id="-djtuZj3p9Uy3ZZ57MP4-25" value="开/关" style="text;html=1;strokeColor=none;fillColor=none;align=center;verticalAlign=middle;whiteSpace=wrap;rounded=0;" vertex="1" parent="1">
          <mxGeometry x="520" y="610" width="60" height="30" as="geometry" />
        </mxCell>
        <mxCell id="-djtuZj3p9Uy3ZZ57MP4-26" value="/helmet/&lt;span style=&quot;background-color: rgb(255, 255, 255); font-family: &amp;quot;JetBrains Mono&amp;quot;, monospace; font-size: 9.8pt;&quot;&gt;detection&lt;/span&gt;" style="text;html=1;strokeColor=none;fillColor=none;align=center;verticalAlign=middle;whiteSpace=wrap;rounded=0;fontStyle=1;fontColor=#000000;" vertex="1" parent="1">
          <mxGeometry x="530" y="510" width="140" height="30" as="geometry" />
        </mxCell>
      </root>
    </mxGraphModel>
  </diagram>
</mxfile>
